<mxfile host="app.diagrams.net" modified="2021-04-07T02:44:35.794Z" agent="5.0 (X11; Linux x86_64) AppleWebKit/537.36 (KHTML, like Gecko) Chrome/89.0.4389.114 Safari/537.36" etag="vkObSixAo102e_a4vbrm" version="14.5.3" type="github">
  <diagram id="9R6WSqTwOeweyFkNmWNM" name="Page-1">
    <mxGraphModel dx="2347" dy="1229" grid="1" gridSize="10" guides="1" tooltips="1" connect="1" arrows="1" fold="1" page="1" pageScale="1" pageWidth="827" pageHeight="1169" math="0" shadow="0">
      <root>
        <mxCell id="0" />
        <mxCell id="1" parent="0" />
        <mxCell id="mBRVT6RuTrRP9rZLZz_N-2" value="pub()" style="whiteSpace=wrap;html=1;rounded=1;fontSize=16;" parent="1" vertex="1">
          <mxGeometry x="331.06" y="1000" width="158" height="60" as="geometry" />
        </mxCell>
        <mxCell id="mBRVT6RuTrRP9rZLZz_N-3" value="&lt;span style=&quot;color: rgb(0 , 0 , 0) ; font-family: &amp;#34;helvetica&amp;#34; ; font-size: 16px ; font-style: normal ; font-weight: 400 ; letter-spacing: normal ; text-align: center ; text-indent: 0px ; text-transform: none ; word-spacing: 0px ; background-color: rgb(248 , 249 , 250) ; display: inline ; float: none&quot;&gt;addKeyFrame()&lt;/span&gt;" style="text;whiteSpace=wrap;html=1;fontSize=16;" parent="1" vertex="1">
          <mxGeometry x="30" y="50" width="200" height="30" as="geometry" />
        </mxCell>
        <mxCell id="mBRVT6RuTrRP9rZLZz_N-5" value="convert vio pose to map" style="whiteSpace=wrap;html=1;rounded=1;fontSize=16;" parent="1" vertex="1">
          <mxGeometry x="301.06" y="190" width="218" height="60" as="geometry" />
        </mxCell>
        <mxCell id="mBRVT6RuTrRP9rZLZz_N-10" value="" style="edgeStyle=orthogonalEdgeStyle;rounded=0;orthogonalLoop=1;jettySize=auto;html=1;fontSize=16;exitX=0.5;exitY=1;exitDx=0;exitDy=0;" parent="1" source="mBRVT6RuTrRP9rZLZz_N-5" target="mBRVT6RuTrRP9rZLZz_N-23" edge="1">
          <mxGeometry relative="1" as="geometry">
            <mxPoint x="410.06" y="350.0000000000002" as="targetPoint" />
            <mxPoint x="410.06" y="270" as="sourcePoint" />
          </mxGeometry>
        </mxCell>
        <mxCell id="mBRVT6RuTrRP9rZLZz_N-13" style="edgeStyle=orthogonalEdgeStyle;rounded=0;orthogonalLoop=1;jettySize=auto;html=1;entryX=0.5;entryY=0;entryDx=0;entryDy=0;" parent="1" source="mBRVT6RuTrRP9rZLZz_N-14" edge="1">
          <mxGeometry relative="1" as="geometry">
            <mxPoint x="410.06" y="190" as="targetPoint" />
          </mxGeometry>
        </mxCell>
        <mxCell id="mBRVT6RuTrRP9rZLZz_N-14" value="KeyFrame" style="whiteSpace=wrap;html=1;rounded=1;fontSize=16;shadow=0;sketch=0;glass=0;strokeColor=none;fillColor=none;" parent="1" vertex="1">
          <mxGeometry x="350.06" y="110" width="120" height="40" as="geometry" />
        </mxCell>
        <mxCell id="mBRVT6RuTrRP9rZLZz_N-19" value="Y" style="edgeStyle=orthogonalEdgeStyle;rounded=0;orthogonalLoop=1;jettySize=auto;html=1;fontSize=16;" parent="1" source="mBRVT6RuTrRP9rZLZz_N-23" target="mBRVT6RuTrRP9rZLZz_N-29" edge="1">
          <mxGeometry relative="1" as="geometry">
            <mxPoint x="410.06" y="460" as="targetPoint" />
            <Array as="points" />
          </mxGeometry>
        </mxCell>
        <mxCell id="mBRVT6RuTrRP9rZLZz_N-20" value="Y" style="edgeLabel;html=1;align=center;verticalAlign=middle;resizable=0;points=[];fontSize=16;" parent="mBRVT6RuTrRP9rZLZz_N-19" vertex="1" connectable="0">
          <mxGeometry x="0.2494" y="-2" relative="1" as="geometry">
            <mxPoint x="1.48" y="-7.1" as="offset" />
          </mxGeometry>
        </mxCell>
        <mxCell id="mBRVT6RuTrRP9rZLZz_N-21" value="" style="edgeStyle=orthogonalEdgeStyle;rounded=0;orthogonalLoop=1;jettySize=auto;html=1;fontSize=16;entryX=0;entryY=0.5;entryDx=0;entryDy=0;" parent="1" source="mBRVT6RuTrRP9rZLZz_N-23" target="mBRVT6RuTrRP9rZLZz_N-43" edge="1">
          <mxGeometry relative="1" as="geometry">
            <mxPoint x="191.06" y="350" as="targetPoint" />
            <Array as="points">
              <mxPoint x="161.06" y="350" />
              <mxPoint x="161.06" y="930" />
            </Array>
          </mxGeometry>
        </mxCell>
        <mxCell id="mBRVT6RuTrRP9rZLZz_N-22" value="N" style="edgeLabel;html=1;align=center;verticalAlign=middle;resizable=0;points=[];fontSize=16;" parent="mBRVT6RuTrRP9rZLZz_N-21" vertex="1" connectable="0">
          <mxGeometry x="-0.2381" y="1" relative="1" as="geometry">
            <mxPoint x="-2" y="-1" as="offset" />
          </mxGeometry>
        </mxCell>
        <mxCell id="mBRVT6RuTrRP9rZLZz_N-23" value="&lt;font style=&quot;font-size: 16px&quot;&gt;detectLoop()&lt;/font&gt;" style="rhombus;whiteSpace=wrap;html=1;rounded=1;shadow=0;glass=0;sketch=0;fontSize=16;" parent="1" vertex="1">
          <mxGeometry x="298.06" y="310" width="223" height="80" as="geometry" />
        </mxCell>
        <mxCell id="mBRVT6RuTrRP9rZLZz_N-31" value="" style="edgeStyle=orthogonalEdgeStyle;rounded=0;orthogonalLoop=1;jettySize=auto;html=1;" parent="1" target="mBRVT6RuTrRP9rZLZz_N-34" edge="1">
          <mxGeometry relative="1" as="geometry">
            <mxPoint x="409.56" y="520" as="sourcePoint" />
            <mxPoint x="409.56" y="610" as="targetPoint" />
          </mxGeometry>
        </mxCell>
        <mxCell id="mBRVT6RuTrRP9rZLZz_N-32" value="&lt;font style=&quot;font-size: 14px&quot;&gt;Y&lt;/font&gt;" style="edgeLabel;html=1;align=center;verticalAlign=middle;resizable=0;points=[];" parent="mBRVT6RuTrRP9rZLZz_N-31" vertex="1" connectable="0">
          <mxGeometry x="0.2333" y="-3" relative="1" as="geometry">
            <mxPoint x="3" y="-15.6" as="offset" />
          </mxGeometry>
        </mxCell>
        <mxCell id="mBRVT6RuTrRP9rZLZz_N-29" value="&lt;font style=&quot;font-size: 16px&quot;&gt;findConnection()&lt;/font&gt;" style="rhombus;whiteSpace=wrap;html=1;rounded=1;shadow=0;glass=0;sketch=0;fontSize=16;" parent="1" vertex="1">
          <mxGeometry x="298.06" y="440" width="223" height="80" as="geometry" />
        </mxCell>
        <mxCell id="mBRVT6RuTrRP9rZLZz_N-39" value="" style="edgeStyle=orthogonalEdgeStyle;rounded=0;orthogonalLoop=1;jettySize=auto;html=1;" parent="1" source="mBRVT6RuTrRP9rZLZz_N-33" target="mBRVT6RuTrRP9rZLZz_N-38" edge="1">
          <mxGeometry relative="1" as="geometry" />
        </mxCell>
        <mxCell id="mBRVT6RuTrRP9rZLZz_N-33" value="&lt;pre&gt;update shift_r and poses&lt;/pre&gt;" style="whiteSpace=wrap;html=1;rounded=1;fontSize=16;" parent="1" vertex="1">
          <mxGeometry x="289.56" y="690" width="240" height="60" as="geometry" />
        </mxCell>
        <mxCell id="mBRVT6RuTrRP9rZLZz_N-40" style="edgeStyle=orthogonalEdgeStyle;rounded=0;orthogonalLoop=1;jettySize=auto;html=1;entryX=0;entryY=0.5;entryDx=0;entryDy=0;" parent="1" source="mBRVT6RuTrRP9rZLZz_N-34" target="mBRVT6RuTrRP9rZLZz_N-38" edge="1">
          <mxGeometry relative="1" as="geometry">
            <Array as="points">
              <mxPoint x="231.06" y="610" />
              <mxPoint x="231.06" y="820" />
            </Array>
          </mxGeometry>
        </mxCell>
        <mxCell id="mBRVT6RuTrRP9rZLZz_N-41" value="N" style="edgeLabel;html=1;align=center;verticalAlign=middle;resizable=0;points=[];fontSize=14;" parent="mBRVT6RuTrRP9rZLZz_N-40" vertex="1" connectable="0">
          <mxGeometry x="-0.8333" y="-3" relative="1" as="geometry">
            <mxPoint y="3" as="offset" />
          </mxGeometry>
        </mxCell>
        <mxCell id="mBRVT6RuTrRP9rZLZz_N-34" value="&lt;font style=&quot;font-size: 16px&quot;&gt;same sequence?&lt;/font&gt;" style="rhombus;whiteSpace=wrap;html=1;rounded=1;shadow=0;glass=0;sketch=0;fontSize=16;" parent="1" vertex="1">
          <mxGeometry x="298.06" y="569.77" width="223" height="80" as="geometry" />
        </mxCell>
        <mxCell id="mBRVT6RuTrRP9rZLZz_N-35" value="" style="edgeStyle=orthogonalEdgeStyle;rounded=0;orthogonalLoop=1;jettySize=auto;html=1;" parent="1" target="mBRVT6RuTrRP9rZLZz_N-33" edge="1">
          <mxGeometry relative="1" as="geometry">
            <mxPoint x="409.56000000000023" y="649.77" as="sourcePoint" />
            <mxPoint x="409.56000000000023" y="739.77" as="targetPoint" />
          </mxGeometry>
        </mxCell>
        <mxCell id="mBRVT6RuTrRP9rZLZz_N-36" value="&lt;font style=&quot;font-size: 14px&quot;&gt;Y&lt;/font&gt;" style="edgeLabel;html=1;align=center;verticalAlign=middle;resizable=0;points=[];" parent="mBRVT6RuTrRP9rZLZz_N-35" vertex="1" connectable="0">
          <mxGeometry x="0.2333" y="-3" relative="1" as="geometry">
            <mxPoint x="3" y="-15.6" as="offset" />
          </mxGeometry>
        </mxCell>
        <mxCell id="mBRVT6RuTrRP9rZLZz_N-44" value="" style="edgeStyle=orthogonalEdgeStyle;rounded=0;orthogonalLoop=1;jettySize=auto;html=1;fontSize=14;" parent="1" source="mBRVT6RuTrRP9rZLZz_N-38" target="mBRVT6RuTrRP9rZLZz_N-43" edge="1">
          <mxGeometry relative="1" as="geometry" />
        </mxCell>
        <mxCell id="mBRVT6RuTrRP9rZLZz_N-38" value="add loop to optimization" style="whiteSpace=wrap;html=1;rounded=1;fontSize=16;" parent="1" vertex="1">
          <mxGeometry x="308.06" y="790" width="203" height="60" as="geometry" />
        </mxCell>
        <mxCell id="mBRVT6RuTrRP9rZLZz_N-45" value="" style="edgeStyle=orthogonalEdgeStyle;rounded=0;orthogonalLoop=1;jettySize=auto;html=1;fontSize=14;" parent="1" source="mBRVT6RuTrRP9rZLZz_N-43" target="mBRVT6RuTrRP9rZLZz_N-2" edge="1">
          <mxGeometry relative="1" as="geometry" />
        </mxCell>
        <mxCell id="mBRVT6RuTrRP9rZLZz_N-43" value="update poses" style="whiteSpace=wrap;html=1;rounded=1;fontSize=16;" parent="1" vertex="1">
          <mxGeometry x="349.56" y="900" width="120" height="60" as="geometry" />
        </mxCell>
        <mxCell id="KzWfx4vx8CWSca00Pvz4-1" value="&lt;span style=&quot;color: rgb(0 , 0 , 0) ; font-family: &amp;#34;helvetica&amp;#34; ; font-size: 16px ; font-style: normal ; font-weight: 400 ; letter-spacing: normal ; text-align: center ; text-indent: 0px ; text-transform: none ; word-spacing: 0px ; background-color: rgb(248 , 249 , 250) ; display: inline ; float: none&quot;&gt;findConnetction()&lt;/span&gt;" style="text;whiteSpace=wrap;html=1;fontSize=16;" vertex="1" parent="1">
          <mxGeometry x="880" y="50" width="200" height="30" as="geometry" />
        </mxCell>
        <mxCell id="KzWfx4vx8CWSca00Pvz4-5" style="edgeStyle=orthogonalEdgeStyle;rounded=0;orthogonalLoop=1;jettySize=auto;html=1;entryX=0;entryY=0.5;entryDx=0;entryDy=0;" edge="1" parent="1" source="KzWfx4vx8CWSca00Pvz4-2" target="KzWfx4vx8CWSca00Pvz4-4">
          <mxGeometry relative="1" as="geometry" />
        </mxCell>
        <mxCell id="KzWfx4vx8CWSca00Pvz4-2" value="new KeyFrame" style="whiteSpace=wrap;html=1;rounded=1;fontSize=16;shadow=0;sketch=0;glass=0;strokeColor=none;fillColor=none;" vertex="1" parent="1">
          <mxGeometry x="1000" y="110" width="120" height="40" as="geometry" />
        </mxCell>
        <mxCell id="KzWfx4vx8CWSca00Pvz4-7" style="edgeStyle=orthogonalEdgeStyle;rounded=0;orthogonalLoop=1;jettySize=auto;html=1;entryX=1;entryY=0.5;entryDx=0;entryDy=0;exitX=0.5;exitY=1;exitDx=0;exitDy=0;" edge="1" parent="1" source="KzWfx4vx8CWSca00Pvz4-3" target="KzWfx4vx8CWSca00Pvz4-4">
          <mxGeometry relative="1" as="geometry">
            <Array as="points">
              <mxPoint x="1380" y="170" />
              <mxPoint x="1380" y="170" />
              <mxPoint x="1380" y="220" />
            </Array>
          </mxGeometry>
        </mxCell>
        <mxCell id="KzWfx4vx8CWSca00Pvz4-3" value="old KeyFrame" style="whiteSpace=wrap;html=1;rounded=1;fontSize=16;shadow=0;sketch=0;glass=0;strokeColor=none;fillColor=none;" vertex="1" parent="1">
          <mxGeometry x="1320" y="110" width="120" height="40" as="geometry" />
        </mxCell>
        <mxCell id="KzWfx4vx8CWSca00Pvz4-11" value="" style="edgeStyle=orthogonalEdgeStyle;rounded=0;orthogonalLoop=1;jettySize=auto;html=1;" edge="1" parent="1" source="KzWfx4vx8CWSca00Pvz4-4" target="KzWfx4vx8CWSca00Pvz4-10">
          <mxGeometry relative="1" as="geometry" />
        </mxCell>
        <mxCell id="KzWfx4vx8CWSca00Pvz4-4" value="matchByBriefDes()" style="whiteSpace=wrap;html=1;rounded=1;fontSize=16;" vertex="1" parent="1">
          <mxGeometry x="1110" y="190" width="218" height="60" as="geometry" />
        </mxCell>
        <mxCell id="KzWfx4vx8CWSca00Pvz4-15" value="" style="edgeStyle=orthogonalEdgeStyle;rounded=0;orthogonalLoop=1;jettySize=auto;html=1;" edge="1" parent="1" source="KzWfx4vx8CWSca00Pvz4-10" target="KzWfx4vx8CWSca00Pvz4-14">
          <mxGeometry relative="1" as="geometry" />
        </mxCell>
        <mxCell id="KzWfx4vx8CWSca00Pvz4-22" value="&lt;font style=&quot;font-size: 14px&quot;&gt;Y&lt;/font&gt;" style="edgeLabel;html=1;align=center;verticalAlign=middle;resizable=0;points=[];" vertex="1" connectable="0" parent="KzWfx4vx8CWSca00Pvz4-15">
          <mxGeometry x="0.1683" relative="1" as="geometry">
            <mxPoint y="-6" as="offset" />
          </mxGeometry>
        </mxCell>
        <mxCell id="KzWfx4vx8CWSca00Pvz4-28" style="edgeStyle=orthogonalEdgeStyle;rounded=0;orthogonalLoop=1;jettySize=auto;html=1;entryX=0.5;entryY=0;entryDx=0;entryDy=0;fontSize=14;" edge="1" parent="1" source="KzWfx4vx8CWSca00Pvz4-10" target="KzWfx4vx8CWSca00Pvz4-27">
          <mxGeometry relative="1" as="geometry" />
        </mxCell>
        <mxCell id="KzWfx4vx8CWSca00Pvz4-31" value="N" style="edgeLabel;html=1;align=center;verticalAlign=middle;resizable=0;points=[];fontSize=14;" vertex="1" connectable="0" parent="KzWfx4vx8CWSca00Pvz4-28">
          <mxGeometry x="-0.9075" y="-1" relative="1" as="geometry">
            <mxPoint as="offset" />
          </mxGeometry>
        </mxCell>
        <mxCell id="KzWfx4vx8CWSca00Pvz4-10" value="&lt;font style=&quot;font-size: 16px&quot;&gt;matched size&amp;gt;=threshold?&lt;/font&gt;" style="rhombus;whiteSpace=wrap;html=1;rounded=1;shadow=0;glass=0;sketch=0;fontSize=16;" vertex="1" parent="1">
          <mxGeometry x="1101" y="310" width="237" height="120" as="geometry" />
        </mxCell>
        <mxCell id="KzWfx4vx8CWSca00Pvz4-17" value="" style="edgeStyle=orthogonalEdgeStyle;rounded=0;orthogonalLoop=1;jettySize=auto;html=1;" edge="1" parent="1" source="KzWfx4vx8CWSca00Pvz4-14" target="KzWfx4vx8CWSca00Pvz4-16">
          <mxGeometry relative="1" as="geometry" />
        </mxCell>
        <mxCell id="KzWfx4vx8CWSca00Pvz4-14" value="PnPRANSAC()" style="whiteSpace=wrap;html=1;rounded=1;fontSize=16;" vertex="1" parent="1">
          <mxGeometry x="1110" y="480" width="218" height="60" as="geometry" />
        </mxCell>
        <mxCell id="KzWfx4vx8CWSca00Pvz4-19" value="" style="edgeStyle=orthogonalEdgeStyle;rounded=0;orthogonalLoop=1;jettySize=auto;html=1;" edge="1" parent="1" source="KzWfx4vx8CWSca00Pvz4-16" target="KzWfx4vx8CWSca00Pvz4-18">
          <mxGeometry relative="1" as="geometry" />
        </mxCell>
        <mxCell id="KzWfx4vx8CWSca00Pvz4-23" value="Y" style="edgeLabel;html=1;align=center;verticalAlign=middle;resizable=0;points=[];fontSize=14;" vertex="1" connectable="0" parent="KzWfx4vx8CWSca00Pvz4-19">
          <mxGeometry x="0.13" y="1" relative="1" as="geometry">
            <mxPoint x="-1" y="-3" as="offset" />
          </mxGeometry>
        </mxCell>
        <mxCell id="KzWfx4vx8CWSca00Pvz4-29" style="edgeStyle=orthogonalEdgeStyle;rounded=0;orthogonalLoop=1;jettySize=auto;html=1;fontSize=14;" edge="1" parent="1" source="KzWfx4vx8CWSca00Pvz4-16">
          <mxGeometry relative="1" as="geometry">
            <mxPoint x="1000" y="660" as="targetPoint" />
          </mxGeometry>
        </mxCell>
        <mxCell id="KzWfx4vx8CWSca00Pvz4-32" value="N" style="edgeLabel;html=1;align=center;verticalAlign=middle;resizable=0;points=[];fontSize=14;" vertex="1" connectable="0" parent="KzWfx4vx8CWSca00Pvz4-29">
          <mxGeometry x="-0.3465" y="-1" relative="1" as="geometry">
            <mxPoint as="offset" />
          </mxGeometry>
        </mxCell>
        <mxCell id="KzWfx4vx8CWSca00Pvz4-16" value="&lt;font style=&quot;font-size: 16px&quot;&gt;matched size&amp;gt;=threshold?&lt;/font&gt;" style="rhombus;whiteSpace=wrap;html=1;rounded=1;shadow=0;glass=0;sketch=0;fontSize=16;" vertex="1" parent="1">
          <mxGeometry x="1101" y="600" width="237" height="120" as="geometry" />
        </mxCell>
        <mxCell id="KzWfx4vx8CWSca00Pvz4-25" value="" style="edgeStyle=orthogonalEdgeStyle;rounded=0;orthogonalLoop=1;jettySize=auto;html=1;fontSize=14;" edge="1" parent="1" source="KzWfx4vx8CWSca00Pvz4-18" target="KzWfx4vx8CWSca00Pvz4-24">
          <mxGeometry relative="1" as="geometry" />
        </mxCell>
        <mxCell id="KzWfx4vx8CWSca00Pvz4-26" value="Y" style="edgeLabel;html=1;align=center;verticalAlign=middle;resizable=0;points=[];fontSize=14;" vertex="1" connectable="0" parent="KzWfx4vx8CWSca00Pvz4-25">
          <mxGeometry x="0.2022" relative="1" as="geometry">
            <mxPoint x="-2" y="-7" as="offset" />
          </mxGeometry>
        </mxCell>
        <mxCell id="KzWfx4vx8CWSca00Pvz4-30" style="edgeStyle=orthogonalEdgeStyle;rounded=0;orthogonalLoop=1;jettySize=auto;html=1;fontSize=14;" edge="1" parent="1" source="KzWfx4vx8CWSca00Pvz4-18">
          <mxGeometry relative="1" as="geometry">
            <mxPoint x="1000" y="850" as="targetPoint" />
          </mxGeometry>
        </mxCell>
        <mxCell id="KzWfx4vx8CWSca00Pvz4-33" value="N" style="edgeLabel;html=1;align=center;verticalAlign=middle;resizable=0;points=[];fontSize=14;" vertex="1" connectable="0" parent="KzWfx4vx8CWSca00Pvz4-30">
          <mxGeometry x="-0.2054" relative="1" as="geometry">
            <mxPoint x="5" as="offset" />
          </mxGeometry>
        </mxCell>
        <mxCell id="KzWfx4vx8CWSca00Pvz4-18" value="&lt;font style=&quot;font-size: 16px&quot;&gt;relative pose &amp;lt; threshold?&lt;/font&gt;" style="rhombus;whiteSpace=wrap;html=1;rounded=1;shadow=0;glass=0;sketch=0;fontSize=16;" vertex="1" parent="1">
          <mxGeometry x="1100.5" y="790" width="237" height="120" as="geometry" />
        </mxCell>
        <mxCell id="KzWfx4vx8CWSca00Pvz4-24" value="return true" style="whiteSpace=wrap;html=1;rounded=1;shadow=0;fontSize=16;glass=0;sketch=0;" vertex="1" parent="1">
          <mxGeometry x="1159.5" y="970" width="120" height="60" as="geometry" />
        </mxCell>
        <mxCell id="KzWfx4vx8CWSca00Pvz4-27" value="return false" style="whiteSpace=wrap;html=1;rounded=1;shadow=0;fontSize=16;glass=0;sketch=0;" vertex="1" parent="1">
          <mxGeometry x="940" y="970" width="120" height="60" as="geometry" />
        </mxCell>
      </root>
    </mxGraphModel>
  </diagram>
</mxfile>
